HIERARCHY
ROOT Hips
{
	OFFSET -3.958830 18.904000 13.208200
	CHANNELS 6 Xposition Yposition Zposition Zrotation Yrotation Xrotation 
	JOINT LHipJoint
	{
		OFFSET 0.000000 0.000000 0.000000
		CHANNELS 3 Zrotation Yrotation Xrotation
		JOINT LeftUpLeg
		{
			OFFSET 1.800000 -1.400000 0.085000
			CHANNELS 3 Zrotation Yrotation Xrotation
			JOINT LeftLeg
			{
				OFFSET 2.215000 -6.000000 0.000000
				CHANNELS 3 Zrotation Yrotation Xrotation
				JOINT LeftFoot
				{
					OFFSET 2.500000 -6.900000 0.000000
					CHANNELS 3 Zrotation Yrotation Xrotation
					JOINT LeftToeBase
					{
						OFFSET 0.200000 -0.500000 1.950000
						CHANNELS 3 Zrotation Yrotation Xrotation
						End Site
						{
							OFFSET 0.000000 0.000000 0.000000
						}
					}
				}
			}
		}
	}
	JOINT RHipJoint
	{
		OFFSET 0.000000 0.000000 0.000000
		CHANNELS 3 Zrotation Yrotation Xrotation
		JOINT RightUpLeg
		{
			OFFSET -1.800000 -1.400000 0.085000
			CHANNELS 3 Zrotation Yrotation Xrotation
			JOINT RightLeg
			{
				OFFSET -2.215000 -6.000000 0.000000
				CHANNELS 3 Zrotation Yrotation Xrotation
				JOINT RightFoot
				{
					OFFSET -2.500000 -6.900000 0.000000
					CHANNELS 3 Zrotation Yrotation Xrotation
					JOINT RightToeBase
					{
						OFFSET -0.200000 -0.500000 1.950000
						CHANNELS 3 Zrotation Yrotation Xrotation
						End Site
						{
							OFFSET 0.000000 0.000000 0.000000
						}
					}
				}
			}
		}
	}
	JOINT LowerBack
	{
		OFFSET 0.000000 0.000000 0.000000
		CHANNELS 3 Zrotation Yrotation Xrotation
		JOINT Spine
		{
			OFFSET -0.087000 1.940000 -0.288900
			CHANNELS 3 Zrotation Yrotation Xrotation
			JOINT Spine1
			{
				OFFSET 0.000000 1.950000 0.060000
				CHANNELS 3 Zrotation Yrotation Xrotation
				JOINT Neck
				{
					OFFSET 0.000000 0.000000 0.000000
					CHANNELS 3 Zrotation Yrotation Xrotation
					JOINT Neck1
					{
						OFFSET 0.000000 1.600000 0.340000
						CHANNELS 3 Zrotation Yrotation Xrotation
						JOINT Head
						{
							OFFSET 0.000000 1.667000 -0.240000
							CHANNELS 3 Zrotation Yrotation Xrotation
							End Site
							{
								OFFSET 0.000000 0.000000 0.000000
							}
						}
					}
				}
				JOINT LeftShoulder
				{
					OFFSET 0.000000 0.000000 0.000000
					CHANNELS 3 Zrotation Yrotation Xrotation
					JOINT LeftArm
					{
						OFFSET 2.700000 1.550000 -0.730000
						CHANNELS 3 Zrotation Yrotation Xrotation
						JOINT LeftForeArm
						{
							OFFSET 5.450000 0.000000 0.000000
							CHANNELS 3 Zrotation Yrotation Xrotation
							JOINT LeftHand
							{
								OFFSET 3.450000 0.000000 0.000000
								CHANNELS 3 Zrotation Yrotation Xrotation
								JOINT LeftHandIndex1
								{
									OFFSET 0.750000 0.000000 0.000000
									CHANNELS 3 Zrotation Yrotation Xrotation
									End Site
									{
										OFFSET 0.000000 0.000000 0.000000
									}
								}
							}
						}
					}
				}
				JOINT RightShoulder
				{
					OFFSET 0.000000 0.000000 0.000000
					CHANNELS 3 Zrotation Yrotation Xrotation
					JOINT RightArm
					{
						OFFSET -2.700000 1.550000 -0.730000
						CHANNELS 3 Zrotation Yrotation Xrotation
						JOINT RightForeArm
						{
							OFFSET -5.450000 0.000000 0.000000
							CHANNELS 3 Zrotation Yrotation Xrotation
							JOINT RightHand
							{
								OFFSET -3.450000 0.000000 0.000000
								CHANNELS 3 Zrotation Yrotation Xrotation
								JOINT RightHandIndex1
								{
									OFFSET -0.750000 0.000000 0.000000
									CHANNELS 3 Zrotation Yrotation Xrotation
									End Site
									{
										OFFSET 0.000000 0.000000 0.000000
									}
								}
							}
						}
					}
				}
			}
		}
	}
}
MOTION
Frames: 9
Frame Time: 0.016667
0.111900 16.387830 -6.376770 16.824454 -9.213041 7.320477 -15.318386 8.136041 6.507832 39.190992 0.648229 -43.738333 -30.881523 19.517702 29.539204 0.835689 10.664187 0.701629 0.583170 0.386650 0.476690 19.166581 -7.197492 4.427426 -35.119776 5.235081 -50.075163 16.491716 -22.068489 51.924524 -1.478213 -9.914988 0.817013 0.110590 -0.202420 0.228050 -5.063982 0.298313 -9.983193 33.762532 -22.085737 42.784221 -24.147795 -8.330207 0.517849 7.088808 -14.525777 -7.416782 -29.974174 9.320922 30.256227 -10.829820 -2.601780 -19.218160 -15.865420 10.403179 -2.836777 -36.869986 12.614922 -11.568174 -27.146275 -29.969544 4.290872 -3.226592 3.260811 0.464800 -0.221870 0.278760 0.127600 0.328520 -2.560054 6.410287 29.164697 -8.656754 -8.055062 120.288056 52.899823 65.241869 2.245723 -2.248278 0.131120 0.060080 -0.188620 -0.081970 
0.143960 16.361970 -6.316880 17.181765 -7.913846 7.908505 -15.211547 8.429955 5.910511 36.071204 -0.243709 -42.498252 -25.700027 17.311864 29.285789 0.619382 9.832245 0.959618 0.574960 0.365330 0.480880 19.214947 -7.395464 4.641464 -36.614540 4.263629 -50.357339 17.685663 -23.139763 51.698953 -1.508423 -10.128516 0.758648 0.102980 -0.179240 0.227470 -5.203860 0.406317 -9.777782 36.866992 -22.946933 38.678573 -26.032771 -8.916991 0.842221 7.285013 -14.574235 -7.053084 -29.999516 9.135568 30.841694 -10.909960 -2.586840 -17.521520 -15.548472 11.016333 -3.271756 -35.604363 12.130575 -10.380699 -24.906245 -20.468968 1.722314 -3.283935 3.152056 0.437460 -0.200640 0.258290 0.137210 -0.602471 -3.302269 6.729832 29.227919 -9.190910 -7.768766 114.259534 53.958982 60.623634 2.239500 -2.279719 0.127060 0.057410 -0.199660 -0.076330 
0.199360 16.298410 -6.207840 17.253926 -6.891810 9.611607 -15.044953 9.010897 4.780376 31.131599 -0.859857 -39.766536 -16.811449 13.033244 26.630664 0.164754 7.958021 1.563012 0.551620 0.322570 0.463260 19.282232 -7.773722 5.046828 -38.525539 3.274116 -51.339109 19.665120 -24.261386 50.321583 -1.491097 -10.265703 0.716658 0.116270 -0.118890 0.226970 -5.439617 0.653599 -9.366100 42.404132 -23.269414 31.142654 -29.441182 -9.125295 1.175590 7.441322 -14.956465 -5.983231 -29.929285 9.106567 30.431319 -11.070200 -2.003020 -15.131630 -15.660138 12.486500 -4.224731 -33.179372 11.558400 -8.323719 -20.535404 -5.383462 -1.653541 -3.437514 2.949882 0.400790 -0.138890 0.192680 0.137020 -1.335972 -4.614040 6.979598 27.037753 -9.252170 -6.517783 103.420469 54.445283 52.131481 2.171217 -2.363093 0.088180 0.060640 -0.178720 -0.087720 
0.246020 16.246830 -6.115420 17.040971 -6.240434 10.649910 -14.896129 9.845944 3.488276 26.217021 -0.975103 -35.823917 -7.384128 8.468554 21.874979 -0.136038 5.595141 2.411488 0.504590 0.276150 0.428550 19.301606 -8.260271 5.435559 -39.521149 2.828318 -51.899082 21.112017 -25.140857 49.518335 -1.480373 -10.384792 0.691302 0.099560 -0.064640 0.219760 -5.577485 0.758821 -8.900189 47.497242 -23.128814 25.101411 -32.226713 -8.779649 1.629200 7.807219 -15.055930 -5.541633 -28.929826 9.074209 29.578063 -10.916750 -0.622230 -12.645640 -15.196533 13.794329 -4.491343 -31.538538 13.717793 -7.768771 -17.179827 3.007693 -2.996194 -3.549220 2.815087 0.341470 -0.086820 0.139070 0.141390 -2.824911 -5.241411 7.785543 25.202250 -10.076782 -5.889738 92.722186 55.328305 44.990555 2.116965 -2.453335 0.070860 0.044530 -0.174210 -0.077830 
0.267820 16.203920 -6.064820 17.402487 -5.882801 10.912343 -14.800743 10.464642 2.573978 22.997854 -0.987810 -31.543934 -1.380544 5.596948 17.013688 -0.202943 4.029407 3.023300 0.487650 0.284040 0.354530 19.303815 -8.605193 5.696432 -40.355106 2.411561 -52.073142 21.922032 -25.721531 49.275549 -1.493674 -10.499189 0.690622 0.086190 -0.002910 0.217970 -5.646852 0.780670 -8.587591 49.996981 -22.711382 21.792182 -33.400754 -8.632799 1.478737 7.700602 -15.102048 -5.470421 -28.256017 9.456403 28.690301 -8.389290 -0.025190 -10.994220 -13.286528 15.231221 -4.577673 -31.394451 14.875158 -7.298154 -13.251083 11.045838 -3.456876 -3.684088 2.705490 0.284450 -0.061170 0.107650 0.189680 -4.637561 -5.748379 8.500598 24.505620 -10.443808 -5.525904 81.336012 57.185655 39.090068 2.051519 -2.555176 0.090530 0.032050 -0.191180 -0.024050 
0.298220 16.162190 -6.031780 17.355140 -6.114677 11.015780 -14.740931 10.867823 1.939752 20.985439 -0.886080 -27.375817 2.779557 3.997650 13.840103 -0.157871 3.240723 3.380321 0.462750 0.298250 0.271410 19.307907 -8.802781 5.928204 -40.645255 2.328355 -52.781745 22.750992 -26.305427 49.335673 -1.530496 -10.629152 0.705611 0.065280 0.067320 0.210440 -5.695638 0.834215 -8.393445 52.070687 -22.482727 19.446109 -33.934885 -8.319473 1.846994 7.496151 -14.992565 -5.674240 -27.264773 9.057747 27.750565 -6.034380 -0.065430 -9.760660 -11.712469 15.937044 -4.227609 -31.484313 17.388585 -7.542366 -9.609832 15.479118 -3.046371 -3.784039 2.636055 0.221380 -0.039090 0.091230 0.256970 -5.768828 -5.582231 9.196659 23.786712 -11.123326 -5.704890 70.134492 61.200966 35.104371 2.039639 -2.630648 0.114220 0.041700 -0.221230 0.049100 
0.336960 16.116130 -5.998420 17.910423 -6.093121 11.127799 -14.703083 11.045154 1.583371 19.302222 -0.975275 -24.017698 5.636225 2.919991 10.364570 -0.196885 2.858318 3.622414 0.365190 0.191420 0.166780 19.325809 -8.930855 6.034418 -41.709789 1.593121 -53.153581 21.659093 -26.817604 50.710841 -1.518750 -10.836655 0.699516 0.028200 0.186810 0.159340 -5.747893 0.912371 -8.287014 53.193421 -21.757437 17.257666 -34.025097 -8.064580 2.057046 7.080077 -15.158037 -5.613805 -27.213130 8.285362 27.428568 -4.487140 -1.107810 -7.880830 -10.313820 16.839643 -4.279657 -31.924545 18.779241 -7.400788 -3.217897 19.899614 -1.437509 -3.995974 2.476654 0.203860 0.009100 0.008430 0.281650 -6.407939 -5.710866 9.724449 23.532985 -12.089927 -6.220665 56.682869 65.262848 29.789675 2.009380 -2.647714 0.036650 0.117320 -0.177450 0.070760 
0.372650 16.091090 -5.975500 18.259968 -5.807649 10.642211 -14.686200 11.211951 1.373447 18.297796 -0.983131 -20.948789 6.514547 2.603355 8.992182 -0.186942 2.807903 3.699385 0.289730 0.101170 0.112650 19.321232 -9.011308 6.074998 -42.477771 0.947145 -52.734917 21.297400 -27.392981 51.563653 -1.518197 -11.025082 0.667779 -0.016510 0.245730 0.150730 -5.740140 0.851814 -8.219212 54.071922 -21.255315 16.038992 -33.551185 -7.950423 2.096252 6.902268 -14.819166 -5.570401 -26.217298 7.505613 27.766419 -4.541880 -1.176640 -5.829550 -9.090004 17.472405 -4.281070 -30.983878 19.920088 -7.281954 0.446936 22.998737 -0.255608 -4.144532 2.416823 0.177680 0.053250 -0.042680 0.276580 -7.319104 -6.042868 9.994558 23.931559 -12.618121 -7.045483 39.040139 69.258983 21.415580 2.034888 -2.652815 0.004770 0.121720 -0.145000 0.074510 
0.423940 16.056200 -5.967130 18.104892 -5.306307 10.043094 -14.690866 11.340817 1.263226 18.299897 -0.882155 -18.530100 5.311526 2.904122 9.276872 -0.139499 2.949484 3.689222 0.244120 0.046420 0.075530 19.301624 -9.019448 6.092703 -43.035642 0.455246 -52.172246 21.325151 -28.172649 52.498606 -1.554580 -11.251834 0.619572 -0.048900 0.285970 0.149370 -5.685282 0.685948 -8.188905 54.745880 -21.498034 15.800152 -32.494626 -8.286268 1.557326 6.381253 -14.656941 -5.545624 -25.443086 6.710742 27.174813 -4.189860 -1.429370 -4.727000 -7.035337 18.472835 -4.118601 -30.316555 21.511667 -7.588555 3.043045 24.822079 0.666529 -4.231799 2.395733 0.157160 0.076240 -0.070540 0.285190 -8.424246 -6.358941 9.976644 23.885612 -12.445588 -7.825792 16.055376 72.388904 8.762502 2.098216 -2.577026 -0.009580 0.118360 -0.137540 0.087910 
